#!OML:ASF F:\VICON\USERDATA\INSTALL\rory3\rory3.ASF
:FULLY-SPECIFIED
:DEGREES
1
root 0.400574 17.7623 -29.0326 1.23203 -7.13883 -8.91824
lowerback 8.53126 2.79023 7.89969
upperback 0.306053 4.58385 2.45763
thorax -4.05224 2.13743 -2.38426
lowerneck -17.7024 -3.06336 -1.17398
upperneck 19.9924 -3.49736 -1.80872
head 9.19988 -1.92705 -0.881014
rclavicle -2.39551e-014 1.70706e-014
rhumerus -25.6326 -1.61811 -83.2669
rradius 32.3018
rwrist -0.747926
rhand -15.6165 24.6492
rfingers 7.12502
rthumb 10.5701 -5.06503
lclavicle -2.39551e-014 1.70706e-014
lhumerus -41.3391 1.76267 83.0309
lradius 30.159
lwrist 1.32125
lhand -23.1544 26.9296
lfingers 7.12502
lthumb 3.29401 56.8839
rfemur 8.72161 6.41261 33.9712
rtibia 23.607
rfoot -20.386 -3.61686
rtoes -16.1755
lfemur -27.3404 -5.48308 -5.625
ltibia 10.7735
lfoot -4.22895 13.2398
ltoes -20.8545
2
root 0.419088 17.7354 -28.8412 1.0942 -7.07695 -8.76971
lowerback 8.10989 2.73279 7.89341
upperback 0.610325 4.43835 2.39443
thorax -3.50524 2.09406 -2.39541
lowerneck -17.5295 -2.88099 -1.37701
upperneck 19.5225 -3.28066 -1.43047
head 9.01806 -1.79775 -0.680568
rclavicle -1.58407e-014 -2.21148e-015
rhumerus -25.1287 -1.55412 -83.3136
rradius 32.1816
rwrist -0.633055
rhand -15.517 24.7444
rfingers 7.12502
rthumb 10.6661 -4.96488
lclavicle -1.58407e-014 -2.21148e-015
lhumerus -41.1667 2.11718 82.9265
lradius 30.024
lwrist 1.27798
lhand -22.8713 27.0627
lfingers 7.12502
lthumb 3.56742 57.0125
rfemur 9.25469 6.5393 33.7702
rtibia 24.1969
rfoot -20.2989 -3.30504
rtoes -17.0066
lfemur -27.8985 -4.39246 -6.53409
ltibia 12.6178
lfoot -4.5589 12.5215
ltoes -19.9696
3
root 0.433732 17.7248 -28.655 0.783177 -7.03879 -8.74977
lowerback 8.36935 2.75394 7.82967
upperback 0.685998 4.483 2.41463
thorax -3.57325 2.11608 -2.35706
lowerneck -16.9835 -2.91903 -1.4574
upperneck 18.9318 -3.36632 -1.24596
head 8.72172 -1.82264 -0.59823
rclavicle 4.30182e-015 -2.25869e-014
rhumerus -25.1842 -1.50043 -83.2447
rradius 32.2707
rwrist -0.798905
rhand -15.4345 24.9655
rfingers 7.12502
rthumb 10.7456 -4.73963
lclavicle 4.30182e-015 -2.25869e-014
lhumerus -41.2573 2.24735 82.926
lradius 29.759
lwrist 1.21033
lhand -22.7316 27.0314
lfingers 7.12502
lthumb 3.70226 56.979
rfemur 9.9642 6.67117 33.7632
rtibia 24.8377
rfoot -20.0178 -3.55091
rtoes -17.6846
lfemur -27.8664 -3.43882 -7.26871
ltibia 14.2095
lfoot -5.10039 11.4509
ltoes -21.2302
4
root 0.448589 17.7039 -28.4634 0.489379 -7.12892 -8.72545
lowerback 9.09247 3.27113 8.00189
upperback 1.31753 5.1946 1.91832
thorax -3.1834 2.4935 -3.05696
lowerneck -20.4626 -3.43516 -0.257636
upperneck 19.8334 -4.3482 -1.37506
head 9.62615 -2.1985 -1.04863
rclavicle -5.26034e-014 -1.64991e-014
rhumerus -23.9655 -3.88662 -83.2848
rradius 32.3061
rwrist -0.457274
rhand -15.4837 25.3079
rfingers 7.12502
rthumb 10.6982 -4.3997
lclavicle -5.26034e-014 -1.64991e-014
lhumerus -39.2214 0.443569 83.0433
lradius 28.9116
lwrist 1.81143
lhand -21.7241 28.4743
lfingers 7.12502
lthumb 4.67514 58.4027
rfemur 10.6302 6.84818 33.7435
rtibia 25.4918
rfoot -19.5392 -3.63282
rtoes -17.7447
lfemur -27.799 -2.82152 -7.77971
ltibia 15.5817
lfoot -5.22895 10.5672
ltoes -18.7718
5
root 0.469459 17.6894 -28.2561 0.410483 -7.2277 -8.65079
lowerback 9.07745 2.89638 7.47569
upperback -0.162148 4.7796 2.58414
thorax -4.87915 2.20202 -2.09247
lowerneck -14.2315 -3.08573 -1.79752
upperneck 18.44 -3.59304 -1.17588
head 8.07075 -1.94736 -0.490874
rclavicle 2.04282e-014 1.17283e-014
rhumerus -27.4882 -1.51558 -82.7828
rradius 32.8116
rwrist -0.792458
rhand -15.6598 26.003
rfingers 7.12502
rthumb 10.5283 -3.71329
lclavicle 2.04282e-014 1.17283e-014
lhumerus -43.2468 2.12692 83.1842
lradius 28.8525
lwrist 1.93762
lhand -20.6889 31.784
lfingers 7.12502
lthumb 5.67468 61.688
rfemur 11.074 7.03605 33.6187
rtibia 26.0705
rfoot -19.1407 -3.11308
rtoes -18.1263
lfemur -27.951 -2.5101 -8.21021
ltibia 17.0511
lfoot -5.40736 9.69014
ltoes -20.1693
6
root 0.492295 17.6879 -28.0409 0.30841 -7.36097 -8.37826
lowerback 8.90172 3.14843 7.41057
upperback 0.561113 5.02359 2.28001
thorax -3.97385 2.37119 -2.36007
lowerneck -17.2822 -3.23403 -1.22255
upperneck 19.295 -3.86094 -1.23549
head 8.89415 -2.03629 -0.705336
rclavicle 3.50707e-014 2.21831e-014
rhumerus -26.0135 -2.89668 -82.7356
rradius 32.5081
rwrist -0.198216
rhand -15.5584 26.7796
rfingers 7.12502
rthumb 10.6261 -2.93172
lclavicle 3.50707e-014 2.21831e-014
lhumerus -41.5883 1.66062 83.193
lradius 28.4759
lwrist 1.77684
lhand -21.7252 31.8998
lfingers 7.12502
lthumb 4.67413 61.8282
rfemur 11.4719 7.1444 33.2212
rtibia 26.6821
rfoot -18.6081 -2.46103
rtoes -18.8118
lfemur -27.8699 -2.24335 -8.85481
ltibia 18.312
lfoot -4.96624 8.36016
ltoes -21.1331
7
root 0.516864 17.6961 -27.8233 0.196999 -7.44895 -8.08387
lowerback 8.85111 2.93437 6.84356
upperback -0.512635 4.76935 2.61364
thorax -5.17454 2.19735 -1.7112
lowerneck -12.9954 -2.94854 -2.04594
upperneck 18.4082 -3.38968 -1.13813
head 7.84458 -1.8651 -0.393583
rclavicle -3.68777e-014 -1.10325e-014
rhumerus -28.5013 -1.45076 -82.4633
rradius 32.7524
rwrist -0.224721
rhand -15.299 27.2703
rfingers 7.12502
rthumb 10.8763 -2.42804
lclavicle -3.68777e-014 -1.10325e-014
lhumerus -44.5457 2.79604 83.0053
lradius 28.8402
lwrist 0.951246
lhand -22.6827 28.5863
lfingers 7.12502
lthumb 3.74947 58.533
rfemur 11.8733 7.08491 32.7449
rtibia 27.2531
rfoot -17.7447 -2.0679
rtoes -20.1566
lfemur -27.944 -1.91734 -9.54884
ltibia 19.786
lfoot -3.93459 6.45246
ltoes -21.6102
8
root 0.544183 17.7154 -27.6083 0.0452561 -7.28958 -7.78282
lowerback 8.75376 3.13808 6.95624
upperback 0.100624 4.97779 2.17072
thorax -4.40702 2.33181 -2.22732
lowerneck -15.6391 -3.21889 -1.25634
upperneck 19.1336 -3.84951 -1.29507
head 8.54223 -2.04219 -0.684314
rclavicle 6.12505e-015 8.54774e-015
rhumerus -27.3617 -2.99263 -82.5025
rradius 32.6183
rwrist 0.0506782
rhand -15.0978 27.9729
rfingers 7.12502
rthumb 11.0704 -1.71514
lclavicle 6.12505e-015 8.54774e-015
lhumerus -43.0386 1.99301 82.9622
lradius 28.5585
lwrist 1.1316
lhand -22.2133 29.0125
lfingers 7.12502
lthumb 4.20283 58.9508
rfemur 12.2641 6.94822 32.3151
rtibia 27.8918
rfoot -16.8492 -1.77385
rtoes -20.8051
lfemur -28.0519 -1.80803 -10.1929
ltibia 21.1903
lfoot -2.88345 4.19757
ltoes -22.3436
9
root 0.570864 17.7242 -27.3955 -0.133062 -7.11071 -7.64549
lowerback 8.56547 3.143 7.02948
upperback 0.396589 4.94751 2.01202
thorax -3.97236 2.33633 -2.40406
lowerneck -16.6581 -3.19614 -0.960506
upperneck 19.5324 -3.87992 -1.28101
head 8.85555 -2.03161 -0.75734
rclavicle -2.25093e-014 -2.73205e-014
rhumerus -26.9158 -3.83531 -82.4719
rradius 32.3155
rwrist 0.336412
rhand -15.2663 27.4619
rfingers 7.12502
rthumb 10.9079 -2.23474
lclavicle -2.25093e-014 -2.73205e-014
lhumerus -42.6116 1.90896 82.869
lradius 28.3657
lwrist 1.39808
lhand -21.8969 31.2199
lfingers 7.12502
lthumb 4.50833 61.1519
rfemur 12.6073 6.82239 32.0875
rtibia 28.6883
rfoot -15.7121 -1.49874
rtoes -21.5959
lfemur -28.0803 -1.91417 -10.5359
ltibia 22.4038
lfoot -2.17079 2.39183
ltoes -22.9621
10
root 0.592968 17.7311 -27.1723 -0.320294 -7.03521 -7.08996
lowerback 8.40245 3.13462 6.43841
upperback 0.271102 4.87117 1.94312
thorax -4.06122 2.30436 -2.13682
lowerneck -16.2909 -3.13634 -1.03473
upperneck 19.7654 -3.79086 -1.24991
head 8.87154 -1.99237 -0.720055
rclavicle -8.84242e-015 -5.48521e-015
rhumerus -27.3893 -4.14637 -82.2781
rradius 32.1254
rwrist 0.603983
rhand -15.9391 24.6076
rfingers 7.12502
rthumb 10.2589 -5.12225
lclavicle -8.84242e-015 -5.48521e-015
lhumerus -43.11 2.35826 82.6507
lradius 28.2776
lwrist 0.421424
lhand -21.2687 32.8371
lfingers 7.12502
lthumb 5.1149 62.7554
rfemur 12.804 6.90694 31.4399
rtibia 29.7346
rfoot -14.5003 -1.23403
rtoes -22.3756
lfemur -27.9773 -2.29672 -11.2009
ltibia 23.3508
lfoot -1.94746 1.16332
ltoes -22.2346
11
root 0.614163 17.7452 -26.9509 -0.486982 -6.68696 -6.2562
lowerback 8.20386 3.01701 5.56767
upperback 0.0855311 4.62334 1.82679
thorax -4.2211 2.19088 -1.74634
lowerneck -15.5317 -3.15452 -1.29211
upperneck 19.6929 -3.77496 -1.19953
head 8.71594 -1.99999 -0.643437
rclavicle -3.50156e-014 -3.32964e-015
rhumerus -28.0575 -4.20461 -82.1164
rradius 32.1211
rwrist 0.793694
rhand -16.2748 22.5795
rfingers 7.12502
rthumb 9.93503 -7.16606
lclavicle -3.50156e-014 -3.32964e-015
lhumerus -43.4775 2.67761 82.6686
lradius 27.5678
lwrist 1.08056
lhand -22.1465 30.8981
lfingers 7.12502
lthumb 4.26733 60.8351
rfemur 12.7412 6.69764 30.4404
rtibia 31.0362
rfoot -13.1994 -0.871969
rtoes -22.6775
lfemur -27.8435 -2.64748 -12.291
ltibia 24.1682
lfoot -1.77818 -0.437962
ltoes -16.5976
12
root 0.630613 17.7591 -26.7379 -0.694094 -6.08934 -5.45971
lowerback 8.15804 2.83272 4.75148
upperback 0.0540186 4.29271 1.64606
thorax -4.2945 2.0408 -1.44596
lowerneck -15.4695 -3.21825 -1.36907
upperneck 19.7946 -3.83741 -1.23521
head 8.74035 -2.03919 -0.650619
rclavicle -4.37916e-014 -1.03368e-014
rhumerus -28.3293 -4.60448 -82.024
rradius 32.0963
rwrist 0.80105
rhand -16.0598 22.4181
rfingers 7.12502
rthumb 10.1425 -7.31739
lclavicle -4.37916e-014 -1.03368e-014
lhumerus -43.5312 2.61433 82.6897
lradius 27.1355
lwrist 1.56214
lhand -22.1003 31.4887
lfingers 7.12502
lthumb 4.3119 61.4248
rfemur 12.5607 6.25437 29.521
rtibia 32.5191
rfoot -11.6657 -0.674627
rtoes -23.4395
lfemur -27.6317 -2.77489 -13.4761
ltibia 24.9564
lfoot -1.41755 -2.23791
ltoes -14.6959
13
root 0.645493 17.7745 -26.528 -0.896966 -5.54934 -4.99758
lowerback 8.20527 2.77004 4.35186
upperback 0.186782 4.16001 1.44531
thorax -4.20219 1.9857 -1.41635
lowerneck -16.2579 -3.30467 -1.24602
upperneck 20.2003 -3.98741 -1.1764
head 9.02128 -2.09235 -0.690673
rclavicle 4.39469e-014 -1.6524e-015
rhumerus -28.2011 -5.68598 -81.8137
rradius 31.9426
rwrist 0.543853
rhand -15.5467 21.4249
rfingers 7.12502
rthumb 10.6374 -8.28583
lclavicle 4.39469e-014 -1.6524e-015
lhumerus -43.1589 2.35606 82.6113
lradius 26.7746
lwrist 1.63751
lhand -22.0846 32.0393
lfingers 7.12502
lthumb 4.32706 61.9751
rfemur 12.2238 5.83039 28.9662
rtibia 34.13
rfoot -9.77288 -0.498081
rtoes -23.9771
lfemur -27.3501 -2.73303 -14.3432
ltibia 25.8639
lfoot -1.58751 -3.25012
ltoes -14.3361
14
root 0.660842 17.7831 -26.3179 -1.23028 -5.0894 -4.73501
lowerback 8.33618 2.67892 4.12503
upperback 0.185373 4.02075 1.34976
thorax -4.2927 1.91836 -1.38178
lowerneck -16.3476 -3.28054 -1.20582
upperneck 20.4905 -3.9916 -1.05604
head 9.13963 -2.07729 -0.662911
rclavicle 1.14517e-015 1.17128e-014
rhumerus -28.6856 -6.37291 -81.6322
rradius 32.0104
rwrist 0.218622
rhand -15.3232 18.7906
rfingers 7.12502
rthumb 10.853 -10.909
lclavicle 1.14517e-015 1.17128e-014
lhumerus -43.1513 2.43717 82.3542
lradius 26.4491
lwrist 1.14671
lhand -22.4882 30.1337
lfingers 7.12502
lthumb 3.93739 60.0771
rfemur 11.9427 5.46999 28.6203
rtibia 35.8635
rfoot -7.34785 -0.278221
rtoes -23.1032
lfemur -26.9262 -2.53345 -15.0188
ltibia 26.939
lfoot -2.48322 -3.49108
ltoes -17.1353
15
root 0.682147 17.7877 -26.104 -1.5129 -4.73944 -4.57657
lowerback 8.40573 2.56785 4.0432
upperback 0.0361329 3.87404 1.32539
thorax -4.4987 1.84084 -1.35374
lowerneck -15.7116 -3.29287 -1.24652
upperneck 20.4822 -4.01788 -1.02015
head 9.02198 -2.09033 -0.634571
rclavicle 2.48871e-014 -9.99825e-015
rhumerus -29.4787 -6.73935 -81.4329
rradius 32.0468
rwrist 0.0461476
rhand -15.0821 17.5452
rfingers 7.12502
rthumb 11.0856 -12.142
lclavicle 2.48871e-014 -9.99825e-015
lhumerus -43.5676 2.70886 82.0099
lradius 26.5369
lwrist 0.0597113
lhand -21.1519 29.0429
lfingers 7.12502
lthumb 5.22764 58.9584
rfemur 11.5198 5.20363 28.3318
rtibia 37.7637
rfoot -4.61635 -0.0709774
rtoes -21.8289
lfemur -26.6418 -2.31476 -15.5227
ltibia 28.1034
lfoot -3.07728 -3.42309
ltoes -18.9724
